<?xml version="1.0" encoding="UTF-8" standalone="no"?>
<!-- Created with Inkscape (http://www.inkscape.org/) -->

<svg
   xmlns:dc="http://purl.org/dc/elements/1.1/"
   xmlns:cc="http://creativecommons.org/ns#"
   xmlns:rdf="http://www.w3.org/1999/02/22-rdf-syntax-ns#"
   xmlns:svg="http://www.w3.org/2000/svg"
   xmlns="http://www.w3.org/2000/svg"
   xmlns:sodipodi="http://sodipodi.sourceforge.net/DTD/sodipodi-0.dtd"
   xmlns:inkscape="http://www.inkscape.org/namespaces/inkscape"
   height="32"
   width="32"
   viewBox="0 0 8.4666665 8.4666669"
   version="1.1"
   id="svg4"
   inkscape:version="0.92.3 (2405546, 2018-03-11)"
   sodipodi:docname="whitelist_mode.svg">
  <defs
     id="defs8" />
  <sodipodi:namedview
     pagecolor="#8488ff"
     bordercolor="#666666"
     borderopacity="1"
     objecttolerance="10"
     gridtolerance="10"
     guidetolerance="10"
     inkscape:pageopacity="0"
     inkscape:pageshadow="2"
     inkscape:window-width="1920"
     inkscape:window-height="864"
     id="namedview6"
     showgrid="false"
     units="px"
     inkscape:zoom="6.7277216"
     inkscape:cx="-0.19328765"
     inkscape:cy="13.861882"
     inkscape:window-x="0"
     inkscape:window-y="30"
     inkscape:window-maximized="1"
     inkscape:current-layer="g843" />
  <metadata
     id="metadata2">
    <rdf:RDF>
      <cc:Work
         rdf:about="">
        <dc:format>image/svg+xml</dc:format>
        <dc:type
           rdf:resource="http://purl.org/dc/dcmitype/StillImage" />
        <dc:title />
      </cc:Work>
    </rdf:RDF>
  </metadata>
  <g
     id="g843"
     transform="matrix(0.17229666,0,0,0.17229666,9.4643805,3.601223)">
    <g
       id="g830"
       transform="matrix(1.0800491,0,0,0.99604579,2.4303465,0.014507)">
      <path
         inkscape:connector-curvature="0"
         d="m -11.090452,3.6687324 a 19.270248,20.958892 0 1 1 -38.540495,0 19.270248,20.958892 0 1 1 38.540495,0 z"
         id="path6"
         style="fill:none;fill-opacity:1;stroke:#ffffff;stroke-width:4.45704985;stroke-opacity:1" />
      <path
         inkscape:connector-curvature="0"
         d="m -38.571272,-3.6795926 15.28837,-4.662596"
         id="path8"
         style="fill:#c855ff;fill-rule:evenodd;stroke:#ffffff;stroke-width:1.58749998;stroke-opacity:1" />
      <path
         inkscape:connector-curvature="0"
         d="m -40.360336,-3.1339686 a 1.7853971,1.7853971 0 1 1 -3.415486,1.041643 1.7853971,1.7853971 0 1 1 3.415486,-1.041643 z"
         id="path10"
         style="fill:#ffffff;fill-opacity:1;fill-rule:evenodd;stroke-width:1.17921174" />
      <path
         inkscape:connector-curvature="0"
         d="m -36.785597,2.1755274 15.28837,-4.662596"
         id="path12"
         style="fill:#c855ff;fill-rule:evenodd;stroke:#ffffff;stroke-width:1.58749998;stroke-opacity:1" />
      <path
         inkscape:connector-curvature="0"
         d="m -38.574661,2.7211514 a 1.7853971,1.7853971 0 1 1 -3.415486,1.041643 1.7853971,1.7853971 0 1 1 3.415486,-1.041643 z"
         id="path14"
         style="fill:#ffffff;fill-opacity:1;fill-rule:evenodd;stroke-width:1.17921174" />
      <path
         inkscape:connector-curvature="0"
         d="m -34.999922,8.0306474 15.288368,-4.662596"
         id="path16"
         style="fill:#c855ff;fill-rule:evenodd;stroke:#ffffff;stroke-width:1.58749998;stroke-opacity:1" />
      <path
         inkscape:connector-curvature="0"
         d="m -36.788986,8.5762714 a 1.7853971,1.7853971 0 1 1 -3.415487,1.041643 1.7853971,1.7853971 0 1 1 3.415487,-1.041643 z"
         id="path18"
         style="fill:#ffffff;fill-opacity:1;fill-rule:evenodd;stroke-width:1.17921174" />
      <path
         inkscape:connector-curvature="0"
         d="M -33.214247,13.885768 -17.925878,9.2231724"
         id="path20"
         style="fill:#c855ff;fill-rule:evenodd;stroke:#ffffff;stroke-width:1.58749998;stroke-opacity:1" />
      <path
         inkscape:connector-curvature="0"
         d="m -35.003311,14.431392 a 1.7853971,1.7853971 0 1 1 -3.415487,1.041643 1.7853971,1.7853971 0 1 1 3.415487,-1.041643 z"
         id="path22"
         style="fill:#ffffff;fill-opacity:1;fill-rule:evenodd;stroke-width:1.17921174" />
    </g>
  </g>
</svg>
